#!OML:ASF I:\golf\golf\golf 2\Subject 1\2002-09-07\Subject1.ASF
:FULLY-SPECIFIED
:DEGREES
352
root -0.286956 17.7732 -3.76232 56.1037 30.6319 15.9685
lowerback 33.5739 4.20052 5.44915
upperback 12.52 8.10466 11.258
thorax -4.37355 3.82126 6.22391
lowerneck -14.1198 -12.1359 -2.077
upperneck -10.655 -16.0626 5.88735
head -0.441977 -8.19926 1.49493
rclavicle -4.13472e-014 -1.74931e-014
rhumerus 14.0324 8.82506 -43.5894
rradius 29.0215
rwrist -18.9372
rhand -11.6606 6.70879
rfingers 7.12502
rthumb 14.3841 -22.7728
lclavicle -4.13472e-014 -1.74931e-014
lhumerus -27.5547 -24.656 96.9353
lradius 105.522
lwrist 14.1449
lhand -12.5702 25.8755
lfingers 7.12502
lthumb 13.5075 55.4174
rfemur -73.3722 -7.67404 12.8562
rtibia 38.3897
rfoot -7.54748 -10.2143
rtoes 17.8239
lfemur -33.5303 -1.12149 -15.3413
ltibia 27.9712
lfoot 0.740156 -9.31741
ltoes -17.1423
353
root -0.273189 17.7859 -3.78443 55.1978 30.6877 15.6197
lowerback 33.5715 4.17235 5.26889
upperback 12.373 8.02149 11.1273
thorax -4.52925 3.78107 6.19865
lowerneck -14.35 -12.0893 -2.25032
upperneck -10.4132 -15.95 6.14574
head -0.293547 -8.12247 1.57644
rclavicle -9.54166e-015 1.23246e-014
rhumerus 12.7611 8.79085 -45.0631
rradius 29.1489
rwrist -18.2718
rhand -12.1154 6.72157
rfingers 7.12502
rthumb 13.9458 -22.7907
lclavicle -9.54166e-015 1.23246e-014
lhumerus -27.775 -24.563 96.9314
lradius 105.197
lwrist 13.7946
lhand -12.6775 25.6896
lfingers 7.12502
lthumb 13.4041 55.2384
rfemur -72.6037 -7.62319 13.2291
rtibia 38.2653
rfoot -7.57302 -9.89092
rtoes 17.8665
lfemur -33.5296 -0.961555 -15.4027
ltibia 28.0689
lfoot -0.0919502 -9.26738
ltoes -17.4097
354
root -0.259273 17.7973 -3.8096 54.419 30.8118 15.2925
lowerback 33.3592 4.14739 5.13683
upperback 12.2423 7.93927 11.0348
thorax -4.5888 3.74572 6.20159
lowerneck -14.5705 -12.0658 -2.35868
upperneck -10.3155 -15.8814 6.32332
head -0.204662 -8.07373 1.63061
rclavicle -8.26944e-014 -6.08281e-014
rhumerus 11.5606 8.85522 -46.2963
rradius 29.2417
rwrist -17.9161
rhand -12.7802 6.64488
rfingers 7.12502
rthumb 13.3051 -22.9104
lclavicle -8.26944e-014 -6.08281e-014
lhumerus -27.9109 -24.5126 97.0517
lradius 104.817
lwrist 13.4111
lhand -12.7368 25.6682
lfingers 7.12502
lthumb 13.3469 55.2208
rfemur -71.9542 -7.57542 13.5593
rtibia 38.1484
rfoot -7.58537 -9.68517
rtoes 17.5931
lfemur -33.7176 -1.09465 -15.3235
ltibia 28.2123
lfoot -0.837101 -8.99514
ltoes -18.5054
355
root -0.243269 17.8102 -3.83628 53.7086 30.969 15.0954
lowerback 33.1752 4.09131 5.01979
upperback 12.0733 7.83218 10.9423
thorax -4.69575 3.69848 6.20194
lowerneck -14.7928 -12.027 -2.37539
upperneck -10.2144 -15.8106 6.37702
head -0.13347 -8.02693 1.63506
rclavicle -2.8625e-014 7.31528e-014
rhumerus 10.2691 9.37392 -47.1801
rradius 29.4684
rwrist -18.1875
rhand -13.4309 6.53694
rfingers 7.12502
rthumb 12.6778 -23.0583
lclavicle -2.8625e-014 7.31528e-014
lhumerus -28.0815 -24.5033 97.2307
lradius 104.439
lwrist 13.0602
lhand -12.7451 25.7004
lfingers 7.12502
lthumb 13.3389 55.2534
rfemur -71.2653 -7.5573 13.7069
rtibia 38.0417
rfoot -7.6227 -9.66056
rtoes 17.0751
lfemur -33.9416 -1.40168 -15.2751
ltibia 28.4041
lfoot -1.76148 -8.54584
ltoes -17.5217
356
root -0.230376 17.8197 -3.86312 53.0371 31.0455 14.6893
lowerback 32.8379 4.0816 4.81403
upperback 11.891 7.73397 10.8034
thorax -4.76383 3.65533 6.20412
lowerneck -14.9401 -11.9299 -2.41568
upperneck -10.1229 -15.6532 6.54105
head -0.0672433 -7.93497 1.68674
rclavicle 0 2.80286e-014
rhumerus 9.05016 10.0069 -48.1608
rradius 29.6765
rwrist -18.4732
rhand -13.9926 6.39557
rfingers 7.12502
rthumb 12.1363 -23.2324
lclavicle 0 2.80286e-014
lhumerus -28.3019 -24.3337 97.1552
lradius 104.104
lwrist 12.7073
lhand -12.6781 25.4512
lfingers 7.12502
lthumb 13.4035 55
rfemur -70.7854 -7.44167 14.0494
rtibia 37.9139
rfoot -7.62122 -9.50345
rtoes 16.7052
lfemur -34.3265 -1.36714 -15.1761
ltibia 28.6638
lfoot -2.92117 -8.2803
ltoes -17.4641
357
root -0.210056 17.8267 -3.89549 52.2993 31.2585 14.3946
lowerback 32.5557 4.01826 4.9463
upperback 11.6053 7.70371 10.8228
thorax -4.94986 3.6446 6.16644
lowerneck -14.4849 -12.0693 -3.08146
upperneck -10.2336 -15.7305 6.90542
head -0.0820012 -7.95424 1.9218
rclavicle 6.36111e-015 -2.75317e-014
rhumerus 7.5268 9.92921 -49.0536
rradius 29.7587
rwrist -18.0353
rhand -14.4972 6.50034
rfingers 7.12502
rthumb 11.6497 -23.1558
lclavicle 6.36111e-015 -2.75317e-014
lhumerus -28.7608 -24.3402 97.6024
lradius 103.619
lwrist 12.2684
lhand -12.4873 25.1409
lfingers 7.12502
lthumb 13.5874 54.6775
rfemur -70.1497 -7.52421 14.4212
rtibia 37.7776
rfoot -7.60429 -9.28348
rtoes 16.7425
lfemur -34.6602 -1.58397 -15.0291
ltibia 28.9317
lfoot -4.13699 -8.04483
ltoes -18.4898
358
root -0.195708 17.8388 -3.92429 51.3321 31.3957 13.8645
lowerback 32.3977 4.01664 4.90559
upperback 11.429 7.68934 10.7728
thorax -5.07741 3.63893 6.13872
lowerneck -14.4365 -12.0727 -3.22807
upperneck -10.2632 -15.6976 7.08589
head -0.0711845 -7.92829 2.00466
rclavicle -6.36111e-015 2.5842e-015
rhumerus 6.27672 9.71843 -50.1741
rradius 29.8012
rwrist -17.3584
rhand -15.2475 6.72559
rfingers 7.12502
rthumb 10.926 -22.9701
lclavicle -6.36111e-015 2.5842e-015
lhumerus -29.0411 -24.3204 97.7493
lradius 102.987
lwrist 11.9603
lhand -12.5924 24.9276
lfingers 7.12502
lthumb 13.4861 54.471
rfemur -69.3947 -7.33011 14.8452
rtibia 37.6383
rfoot -7.60803 -9.12494
rtoes 16.9408
lfemur -34.8786 -1.50878 -14.8305
ltibia 29.2097
lfoot -5.3005 -7.90893
ltoes -19.2929
359
root -0.178347 17.8563 -3.95218 50.3997 31.5728 13.4125
lowerback 32.214 3.97591 4.89424
upperback 11.2585 7.63194 10.7051
thorax -5.17728 3.61481 6.09402
lowerneck -14.455 -12.0408 -3.232
upperneck -10.3237 -15.6372 7.17999
head -0.081226 -7.89308 2.03939
rclavicle -3.49861e-014 1.27222e-014
rhumerus 5.00035 10.3474 -50.8912
rradius 30.0036
rwrist -17.6205
rhand -16.0541 6.63805
rfingers 7.12502
rthumb 10.148 -23.0972
lclavicle -3.49861e-014 1.27222e-014
lhumerus -29.3743 -24.4185 97.8109
lradius 102.428
lwrist 11.8353
lhand -12.9481 24.7289
lfingers 7.12502
lthumb 13.1433 54.2947
rfemur -68.5889 -7.18578 15.1965
rtibia 37.5132
rfoot -7.56442 -9.03345
rtoes 15.6665
lfemur -35.0951 -1.66723 -14.5918
ltibia 29.4758
lfoot -6.23339 -7.60786
ltoes -19.3699
360
root -0.158941 17.8687 -3.9789 49.5768 31.7221 13.0339
lowerback 31.9686 3.86331 4.90533
upperback 11.0567 7.48239 10.5702
thorax -5.26427 3.54873 6.00062
lowerneck -14.5217 -11.9895 -3.29468
upperneck -10.3355 -15.5397 7.32195
head -0.0601415 -7.83462 2.09506
rclavicle 6.36111e-014 -8.17005e-014
rhumerus 3.84556 10.8662 -51.7802
rradius 30.0247
rwrist -17.7844
rhand -16.6451 6.48534
rfingers 7.12502
rthumb 9.57778 -23.277
lclavicle 6.36111e-014 -8.17005e-014
lhumerus -29.5375 -24.3234 97.7578
lradius 101.614
lwrist 11.6222
lhand -13.1979 24.3443
lfingers 7.12502
lthumb 12.9025 53.9255
rfemur -67.8751 -7.17177 15.5653
rtibia 37.3862
rfoot -7.48209 -8.86976
rtoes 14.1145
lfemur -35.3733 -1.76259 -14.4528
ltibia 29.7311
lfoot -7.01046 -7.28783
ltoes -19.7363
361
root -0.139225 17.8716 -4.00649 48.868 31.7681 12.6888
lowerback 31.6131 3.80621 4.7725
upperback 10.8575 7.3462 10.4211
thorax -5.32368 3.48877 5.96831
lowerneck -14.6653 -11.9466 -3.33773
upperneck -10.2686 -15.4564 7.48602
head -0.000161224 -7.78117 2.14594
rclavicle -3.49861e-014 2.8625e-014
rhumerus 2.68618 11.3354 -52.573
rradius 30.108
rwrist -17.8152
rhand -17.3588 6.64786
rfingers 7.12502
rthumb 8.88914 -23.1449
lclavicle -3.49861e-014 2.8625e-014
lhumerus -29.4481 -24.0801 97.7353
lradius 100.343
lwrist 11.0831
lhand -13.264 24.1273
lfingers 7.12502
lthumb 12.8387 53.7125
rfemur -67.3138 -7.16186 15.8561
rtibia 37.2448
rfoot -7.44797 -8.69946
rtoes 15.1781
lfemur -35.7528 -1.67318 -14.4695
ltibia 29.9828
lfoot -7.73184 -7.04833
ltoes -20.6658
